<svg xmlns="http://www.w3.org/2000/svg" width="1300" height="540" viewBox="0 0 1300 540" role="img" aria-labelledby="title desc" fill="none">
  <title id="title">Your app creates an instance, then chats with it at its own URL</title>
  <desc id="desc">Your app calls Agent 37 Cloud to create isolated, persistent agent instances. Chat goes straight to an instance at its own URL, where Hermes runs.</desc>

  <defs>
    <!-- NOTE: Do not use SVG <filter>/<feDropShadow> here. The docs image CDN
         (mintcdn "auto=format") strips filter primitives during optimization,
         which leaves empty <filter> elements and makes every filtered element
         render as fully transparent (the center hub, panel, and cards vanished
         in production while looking fine via `mint dev`). Shadows below are drawn
         as gradient shapes instead, which survive CDN optimization. -->
    <radialGradient id="hub-shadow" cx="50%" cy="50%" r="50%">
      <stop offset="0%" stop-color="#0a0a0a" stop-opacity="0.30" />
      <stop offset="55%" stop-color="#0a0a0a" stop-opacity="0.17" />
      <stop offset="100%" stop-color="#0a0a0a" stop-opacity="0" />
    </radialGradient>

    <radialGradient id="hub-fill" cx="32%" cy="24%" r="90%">
      <stop offset="0" stop-color="#33333a" />
      <stop offset="0.58" stop-color="#1a1a1d" />
      <stop offset="1" stop-color="#0c0c0e" />
    </radialGradient>

    <pattern id="dots" width="22" height="22" patternUnits="userSpaceOnUse">
      <circle cx="1.1" cy="1.1" r="1.1" fill="#e7e7e9" />
    </pattern>

    <marker id="arrow" markerUnits="userSpaceOnUse" markerWidth="12" markerHeight="12" refX="8.5" refY="5.5" orient="auto">
      <path d="M0,0.5 L10,5.5 L0,10.5 Z" fill="#9c9c9c" />
    </marker>

    <clipPath id="panel-clip">
      <rect x="330" y="46" width="950" height="448" rx="24" />
    </clipPath>

    <symbol id="agent37-mark" viewBox="0 0 512 512">
      <path fill="currentColor" fill-rule="evenodd" d="M223 63 H290 L449 222 V290 L290 449 H222 L63 290 V223 L223 63ZM238 102 L103 237 V273 L238 408 H274 L409 273 V237 L274 102 H238Z" />
      <path fill="currentColor" fill-rule="evenodd" d="M256 116 L396 256 L256 396 L116 256 L256 116ZM256 170 L170 256 L256 342 L342 256 L256 170Z" />
      <path fill="currentColor" d="M145 225 L225 145 H279 L367 233 L331 269 L267 205 H249 L181 273 Z" />
      <path fill="currentColor" d="M367 287 L287 367 H233 L145 279 L181 243 L245 307 H263 L331 239 Z" />
    </symbol>

    <style>
      .sans { font-family: Inter, ui-sans-serif, system-ui, -apple-system, BlinkMacSystemFont, "Segoe UI", sans-serif; }
      .mono { font-family: ui-monospace, SFMono-Regular, Menlo, Consolas, monospace; }
      .label { fill: #111111; font-size: 17px; font-weight: 670; }
      .muted { fill: #737373; font-size: 13px; font-weight: 400; }
      .tool { fill: #27272a; font-size: 14px; font-weight: 600; }
      .endpoint { fill: #3f3f46; font-size: 13px; }
      .method { fill: #16a34a; font-size: 13px; font-weight: 600; }
      .arrowcap { fill: #8a8a8a; font-size: 12.5px; font-weight: 550; }
    </style>
  </defs>

  <rect width="1300" height="540" fill="#ffffff" />

  <!-- panel container (soft shadow drawn as an offset translucent rect) -->
  <rect x="330" y="55" width="950" height="448" rx="24" fill="#0a0a0a" opacity="0.05" />
  <rect x="330" y="46" width="950" height="448" rx="24" fill="#f7f7f8" stroke="#e3e3e5" />
  <rect x="330" y="46" width="950" height="448" fill="url(#dots)" clip-path="url(#panel-clip)" opacity="0.7" />

  <rect x="348" y="64" width="194" height="36" rx="11" fill="#ffffff" stroke="#e5e5e5" />
  <use href="#agent37-mark" x="360" y="73" width="18" height="18" color="#525252" />
  <text class="sans" x="386" y="87" font-size="14.5" font-weight="650" fill="#111111">Agent 37 Cloud</text>

  <g stroke="#c6c6c6" stroke-width="2.1" stroke-linecap="round" stroke-linejoin="round" marker-end="url(#arrow)">
    <path d="M244,300 H418" />
    <path d="M526,300 H690 Q710,300 710,285 V189 Q710,174 725,174 H852" />
    <path d="M526,300 H852" />
    <path d="M526,300 H690 Q710,300 710,315 V411 Q710,426 725,426 H852" />
    <path d="M138,222 C138,134 320,110 580,110 C760,110 824,134 850,162" />
  </g>

  <text class="sans arrowcap" x="331" y="288" text-anchor="middle">create</text>
  <text class="sans arrowcap" x="244" y="174" text-anchor="middle">chat, straight to the instance</text>

  <g class="sans">
    <rect x="20" y="232" width="224" height="150" rx="18" fill="#0a0a0a" opacity="0.07" />
    <rect x="20" y="225" width="224" height="150" rx="18" fill="#ffffff" stroke="#e5e5e5" />
    <rect x="40" y="245" width="24" height="24" rx="7" fill="#121214" />
    <rect x="48" y="253" width="8" height="8" rx="2.2" fill="none" stroke="#ffffff" stroke-width="1.8" />
    <text x="74" y="262" font-size="15" font-weight="650" fill="#111111">Your app</text>
    <rect x="40" y="282" width="184" height="34" rx="9" fill="#f5f5f5" stroke="#ececec" />
    <text class="mono method" x="52" y="303.5">POST</text>
    <text class="mono endpoint" x="91" y="303.5">/v1/instances</text>
    <rect x="40" y="326" width="184" height="34" rx="9" fill="#f5f5f5" stroke="#ececec" />
    <text class="mono method" x="52" y="347.5">POST</text>
    <text class="mono endpoint" x="91" y="347.5">/v1/responses</text>
  </g>

  <!-- central routing hub (soft shadow drawn as a radial-gradient ellipse) -->
  <ellipse cx="476" cy="314" rx="60" ry="58" fill="url(#hub-shadow)" />
  <circle cx="476" cy="300" r="50" fill="url(#hub-fill)" />
  <circle cx="476" cy="300" r="49.5" stroke="#ffffff" stroke-opacity="0.10" />
  <use href="#agent37-mark" x="444" y="268" width="64" height="64" color="#ffffff" />

  <g class="sans">
    <rect x="860" y="129" width="384" height="104" rx="16" fill="#0a0a0a" opacity="0.06" />
    <rect x="860" y="122" width="384" height="104" rx="16" fill="#ffffff" stroke="#e5e5e5" />
    <text class="label" x="882" y="155">Instance ab12cd34ef</text>
    <circle cx="1176" cy="148" r="4" fill="#22c55e" />
    <circle cx="1176" cy="148" r="6.5" fill="#22c55e" opacity="0.16" />
    <text x="1188" y="152" font-size="12.5" fill="#737373">running</text>
    <text class="mono" x="882" y="177" font-size="13" fill="#52525b">ab12cd34ef.agent37.app</text>
    <rect x="880" y="188" width="106" height="30" rx="15" fill="#fafafa" stroke="#e5e5e5" />
    <rect x="887" y="191" width="24" height="24" rx="6" fill="#ffffff" stroke="#e5e5e5" />
    <rect x="889" y="193" width="20" height="20" rx="5" fill="#111111" />
    <text x="895" y="208" font-size="13" font-weight="750" fill="#ffffff">H</text>
    <text class="tool" x="920" y="207">Hermes</text>
  </g>

  <g class="sans">
    <rect x="860" y="255" width="384" height="104" rx="16" fill="#0a0a0a" opacity="0.06" />
    <rect x="860" y="248" width="384" height="104" rx="16" fill="#ffffff" stroke="#e5e5e5" />
    <text class="label" x="882" y="281">Instance x4t8w6n0r5</text>
    <circle cx="1176" cy="274" r="4" fill="#22c55e" />
    <circle cx="1176" cy="274" r="6.5" fill="#22c55e" opacity="0.16" />
    <text x="1188" y="278" font-size="12.5" fill="#737373">running</text>
    <text class="muted" x="882" y="303">Files, memory, and tools persist.</text>
    <rect x="880" y="314" width="106" height="30" rx="15" fill="#fafafa" stroke="#e5e5e5" />
    <rect x="887" y="317" width="24" height="24" rx="6" fill="#ffffff" stroke="#e5e5e5" />
    <rect x="889" y="319" width="20" height="20" rx="5" fill="#111111" />
    <text x="895" y="334" font-size="13" font-weight="750" fill="#ffffff">H</text>
    <text class="tool" x="920" y="333">Hermes</text>
  </g>

  <g class="sans">
    <rect x="860" y="381" width="384" height="104" rx="16" fill="#0a0a0a" opacity="0.06" />
    <rect x="860" y="374" width="384" height="104" rx="16" fill="#ffffff" stroke="#e5e5e5" />
    <text class="label" x="882" y="407">Instance 9k3m7p2q1z</text>
    <circle cx="1176" cy="400" r="4" fill="#22c55e" />
    <circle cx="1176" cy="400" r="6.5" fill="#22c55e" opacity="0.16" />
    <text x="1188" y="404" font-size="12.5" fill="#737373">running</text>
    <text class="muted" x="882" y="429">Files, memory, and tools persist.</text>
    <rect x="880" y="440" width="106" height="30" rx="15" fill="#fafafa" stroke="#e5e5e5" />
    <rect x="887" y="443" width="24" height="24" rx="6" fill="#ffffff" stroke="#e5e5e5" />
    <rect x="889" y="445" width="20" height="20" rx="5" fill="#111111" />
    <text x="895" y="460" font-size="13" font-weight="750" fill="#ffffff">H</text>
    <text class="tool" x="920" y="459">Hermes</text>
  </g>
</svg>
